<svg xmlns="http://www.w3.org/2000/svg" xmlns:xlink="http://www.w3.org/1999/xlink" viewBox="0 0 30.32 25.07"><defs><style>.cls-1{fill:none;}.cls-2{clip-path:url(#clip-path);}.cls-3{fill:#900d1c;}.cls-4{fill:#db001e;}</style><clipPath id="clip-path"><path class="cls-1" d="M23.48,17.47a12.58,12.58,0,0,1-2.61-1.2c-1.7-.85-3.38-1.75-5.05-2.66a1.05,1.05,0,0,0-1.12,0q-3.4,1.78-6.83,3.52c-.24.12-.47.37-.83.18,1.34-2.34,2.67-4.69,4-7C12.31,8.16,13.59,6,14.82,3.88c.28-.48.41-.69.77-.07C18.18,8.32,20.8,12.82,23.48,17.47Z"/></clipPath></defs><title>Asset 1</title><g id="Layer_2" data-name="Layer 2"><g id="Layer_1-2" data-name="Layer 1"><g class="cls-2"><rect class="cls-3" x="15.16" y="1.18" width="15.16" height="23.89"/><rect class="cls-4" width="15.16" height="23.89"/></g></g></g></svg>