<svg xmlns="http://www.w3.org/2000/svg" xmlns:xlink="http://www.w3.org/1999/xlink" width="52.708" height="52.623" viewBox="0 0 52.708 52.623"><defs><style>.a{fill:none;}.b{fill:#00afec;}.c{fill:#0a4795;}.d{clip-path:url(#a);}.e{fill:#900d1c;}.f{fill:#db001e;}</style><clipPath id="a"><path class="a" d="M411.056,142.383a11.969,11.969,0,0,1-2.61-1.192c-1.7-.85-3.384-1.75-5.054-2.665a1.046,1.046,0,0,0-1.115.021q-3.407,1.781-6.834,3.523c-.239.122-.468.368-.827.181,1.34-2.344,2.669-4.692,4.021-7.027,1.244-2.149,2.523-4.278,3.76-6.431.273-.475.411-.682.768-.061C405.758,133.242,408.37,137.741,411.056,142.383Z" transform="translate(-394.616 -128.346)"/></clipPath></defs><path class="b" d="M323.285,108.967c1.51-.464,2.837-.889,4.176-1.277,1.294-.376,2.6-.722,3.9-1.063a.817.817,0,0,0,.632-.734,17.041,17.041,0,0,1,3.761-8.12.641.641,0,0,0,.011-.909c-.729-1.111-1.461-2.22-2.184-3.335-.152-.234-.268-.491-.45-.829.709.056,1.088.534,1.554.807.946.555,1.854,1.176,2.765,1.788a.592.592,0,0,0,.833-.056,17.865,17.865,0,0,1,6.884-3.478c.807-.207,1.635-.331,2.456-.48.564-.1.85.062.834.721-.038,1.452-.014,2.906.006,4.359a.752.752,0,0,1-.741.868c-4.592.724-7.623,3.4-9.406,7.591a7.522,7.522,0,0,0-.7,3.525c.057.747-.33.885-.927.884-2.062,0-4.123,0-6.185-.006-2-.007-3.992-.03-5.988-.033A3.075,3.075,0,0,1,323.285,108.967Z" transform="translate(-323.285 -82.82)"/><path class="b" d="M456.557,161.34c-.879.29-1.751.6-2.639.864-1.816.536-3.637,1.06-5.465,1.554a.7.7,0,0,0-.57.651,16.649,16.649,0,0,1-3.63,7.969.879.879,0,0,0-.034,1.273c.776,1.065,1.485,2.178,2.194,3.289.1.16.4.385.152.593-.209.177-.4-.067-.594-.194-1.144-.758-2.323-1.467-3.433-2.272a.661.661,0,0,0-.97.03,17.156,17.156,0,0,1-6.548,3.372,10.736,10.736,0,0,1-3.058.528c-.437-.008-.544-.129-.539-.536.019-1.54.03-3.081,0-4.621-.009-.53.26-.584.684-.66a12.059,12.059,0,0,0,8.568-5.833,9.81,9.81,0,0,0,1.585-5.323c-.015-.652.179-.893.9-.887,4.16.036,8.32.013,12.48.01h.871Z" transform="translate(-403.849 -134.907)"/><path class="c" d="M374.7,191.18c-.764-2.573-1.546-5.14-2.278-7.722a1.224,1.224,0,0,0-1.11-1.053,16.866,16.866,0,0,1-7.866-3.747c-.414-.357-.68-.155-.981.04-1.08.7-2.147,1.422-3.22,2.133-.236.156-.479.3-.721.454-.276-.372.072-.511.19-.7.7-1.11,1.408-2.219,2.152-3.3a.861.861,0,0,0-.03-1.253,16.47,16.47,0,0,1-3.65-8.108c-.267-1.884-.245-1.886,1.662-1.884,1.077,0,2.154.014,3.23,0,.454-.008.641.108.71.618A12.127,12.127,0,0,0,373.14,176.86c1.7.207,1.7.207,1.7,1.958q.016,5.8.035,11.595a7.21,7.21,0,0,1-.075.752Z" transform="translate(-348.447 -138.557)"/><path class="c" d="M426.729,58.139c.772,2.6,1.568,5.2,2.3,7.818a1.191,1.191,0,0,0,1.057.982,15.91,15.91,0,0,1,7.522,3.424,1.2,1.2,0,0,0,1.665.058,32.909,32.909,0,0,1,3.911-2.416c-.539.84-1.075,1.682-1.618,2.519-.438.677-1.126,1.3-1.26,2.034-.138.753.786,1.259,1.2,1.9a18.818,18.818,0,0,1,2.9,7.613c.159,1.1.131,1.123-.959,1.118-1.4-.006-2.794-.013-4.19,0-.418.005-.565-.087-.636-.56a12.047,12.047,0,0,0-8.382-9.758,9.688,9.688,0,0,0-2.949-.522c-.461,0-.734-.122-.731-.7.023-4.5.013-9.008.013-13.511Z" transform="translate(-400.227 -58.139)"/><g transform="translate(18.189 17.88)"><g class="d" transform="translate(0 0)"><rect class="e" width="15.159" height="23.889" transform="translate(8.117 -2.251)"/><rect class="f" width="15.159" height="23.889" transform="translate(-7.042 -3.428)"/></g></g></svg>