<svg xmlns="http://www.w3.org/2000/svg" xmlns:xlink="http://www.w3.org/1999/xlink" width="206.708" height="206.623" viewBox="0 0 206.708 206.623"><defs><style>.a{fill:none;}.b{fill:#fff;}.c{fill:rgba(255,255,255,0.62);}.d{opacity:0.834;clip-path:url(#a);}.e{fill:#eb1a1a;}.f{fill:#ff5a5a;}</style><clipPath id="a"><path class="a" d="M459.089,183.462c-4.164-1.043-7.1-3.117-10.236-4.681-6.684-3.336-13.27-6.873-19.822-10.463a4.1,4.1,0,0,0-4.372.084q-13.36,6.993-26.8,13.833c-.936.478-1.835,1.446-3.242.712,5.254-9.2,10.468-18.422,15.769-27.591,4.878-8.439,9.9-16.8,14.745-25.253,1.069-1.865,1.613-2.678,3.013-.24C438.311,147.572,448.554,165.238,459.089,183.462Z"/></clipPath></defs><g transform="translate(-323.285 -58.139)"><path class="b" d="M323.285,160.807c5.92-1.82,11.128-3.489,16.376-5.015,5.073-1.475,10.18-2.835,15.291-4.175a3.206,3.206,0,0,0,2.48-2.883A66.946,66.946,0,0,1,372.18,116.85c1.19-1.427.828-2.372.045-3.568-2.858-4.363-5.731-8.717-8.565-13.1-.6-.918-1.05-1.926-1.764-3.254,2.782.221,4.265,2.1,6.093,3.17,3.71,2.178,7.27,4.616,10.842,7.02a2.32,2.32,0,0,0,3.268-.218,70.031,70.031,0,0,1,27-13.655c3.164-.813,6.413-1.3,9.632-1.885,2.213-.4,3.335.243,3.269,2.832-.147,5.7-.054,11.411.025,17.117.029,2.088-.825,3.08-2.906,3.409-18.008,2.843-29.894,13.351-36.89,29.806a29.566,29.566,0,0,0-2.742,13.841c.225,2.933-1.3,3.476-3.637,3.471-8.085-.016-16.171,0-24.257-.024-7.827-.028-15.655-.119-23.482-.128A12.047,12.047,0,0,1,323.285,160.807Z"/><path class="b" d="M529.993,161.93c-3.448,1.137-6.868,2.364-10.348,3.393-7.123,2.1-14.262,4.163-21.433,6.1a2.759,2.759,0,0,0-2.236,2.555,65.406,65.406,0,0,1-14.235,31.291c-1.455,1.772-1.526,3.081-.132,5,3.042,4.18,5.824,8.553,8.6,12.916.4.627,1.557,1.513.6,2.328-.821.7-1.581-.263-2.33-.76-4.486-2.978-9.112-5.759-13.464-8.92-1.606-1.166-2.569-.917-3.8.119a67.256,67.256,0,0,1-25.681,13.241c-3.908,1.078-7.833,2.149-11.991,2.073-1.715-.032-2.135-.508-2.115-2.1.075-6.047.119-12.1.012-18.143-.037-2.081,1.018-2.293,2.684-2.59,14.606-2.6,25.952-10.215,33.6-22.9,3.823-6.341,6.393-13.283,6.217-20.9-.059-2.559.7-3.508,3.518-3.484,16.314.14,32.629.05,48.944.038q1.708,0,3.417,0Z"/><path class="c" d="M426.224,264.762c-2.995-10.1-6.063-20.184-8.934-30.321-.688-2.432-1.561-3.578-4.354-4.136a66.112,66.112,0,0,1-30.848-14.713c-1.622-1.4-2.667-.609-3.847.158-4.235,2.753-8.419,5.585-12.629,8.377-.925.614-1.877,1.186-2.828,1.784-1.082-1.462.283-2.008.744-2.738,2.756-4.357,5.522-8.711,8.439-12.961,1.236-1.8,1.478-2.939-.118-4.921-7.517-9.332-12.619-19.86-14.313-31.837-1.046-7.4-.96-7.407,6.519-7.4,4.223,0,8.447.056,12.669-.017,1.779-.031,2.514.423,2.784,2.427,2.776,20.57,20.091,37.574,40.617,40.07,6.672.812,6.657.812,6.675,7.687q.063,22.763.139,45.526a28.344,28.344,0,0,1-.293,2.951Z"/><path class="c" d="M427.222,58.139c3.026,10.227,6.149,20.425,9,30.7a4.675,4.675,0,0,0,4.145,3.857,62.359,62.359,0,0,1,29.5,13.446c2.231,1.819,4.137,1.923,6.529.226a129.042,129.042,0,0,1,15.34-9.485c-2.114,3.3-4.216,6.6-6.344,9.891-1.719,2.657-4.417,5.119-4.941,7.986-.541,2.955,3.083,4.945,4.716,7.47a73.942,73.942,0,0,1,11.38,29.891c.624,4.326.513,4.41-3.76,4.391-5.478-.024-10.956-.051-16.432.018-1.639.021-2.214-.342-2.495-2.2a47.285,47.285,0,0,0-32.871-38.316,37.955,37.955,0,0,0-11.566-2.05c-1.806.017-2.877-.479-2.866-2.742.09-17.684.05-35.368.05-53.051Z"/><g class="d"><rect class="e" width="59.449" height="93.798" transform="translate(426.448 119.508)"/><rect class="f" width="59.449" height="93.798" transform="translate(366.999 114.884)"/></g></g></svg>